<?xml version="1.0" encoding="utf-8"?>
<!-- Generator: Adobe Illustrator 22.1.0, SVG Export Plug-In . SVG Version: 6.00 Build 0)  -->
<svg version="1.1" id="Layer_1" xmlns="http://www.w3.org/2000/svg" xmlns:xlink="http://www.w3.org/1999/xlink" x="0px" y="0px"
	 viewBox="0 0 331 512" style="enable-background:new 0 0 331 512;" xml:space="preserve">
<style type="text/css">
	.st0{fill:#FFFFFF;}
</style>
<path class="st0" d="M220.5,305.4c0,0.7-0.8,1.2-1.7,1.2c-1.1,0.1-1.9-0.4-1.9-1.2c0-0.7,0.8-1.2,1.7-1.2
	C219.7,304.1,220.5,304.6,220.5,305.4z M210.1,303.9c-0.2,0.7,0.4,1.4,1.4,1.6c0.9,0.3,1.9,0,2.1-0.7c0.2-0.7-0.4-1.4-1.4-1.7
	C211.3,302.9,210.3,303.2,210.1,303.9L210.1,303.9z M224.9,303.3c-1,0.2-1.6,0.9-1.5,1.6c0.1,0.7,1,1.1,2,0.9c1-0.2,1.6-0.9,1.5-1.5
	C226.8,303.7,225.9,303.2,224.9,303.3z M246.9,175.1c-46.4,0-81.9,35.2-81.9,81.7c0,37.1,23.4,68.9,56.7,80.1c4.3,0.8,5.8-1.9,5.8-4
	c0-2.1-0.1-13.5-0.1-20.5c0,0-23.4,5-28.3-10c0,0-3.8-9.7-9.3-12.2c0,0-7.7-5.3,0.5-5.2c0,0,8.3,0.7,12.9,8.6
	c7.3,12.9,19.6,9.2,24.4,7c0.8-5.4,2.9-9.1,5.4-11.3c-18.7-2.1-37.6-4.8-37.6-37c0-9.2,2.5-13.8,7.9-19.7
	c-0.9-2.2-3.7-11.1,0.9-22.7c7-2.2,23.1,9,23.1,9c6.7-1.9,13.9-2.8,21-2.8s14.3,1,21,2.8c0,0,16.1-11.2,23.1-9
	c4.6,11.6,1.7,20.5,0.9,22.7c5.4,5.9,8.6,10.5,8.6,19.7c0,32.3-19.7,34.9-38.4,37c3.1,2.6,5.7,7.7,5.7,15.5c0,11.3-0.1,25.2-0.1,28
	c0,2.2,1.5,4.8,5.8,4c33.5-11.1,56.2-42.9,56.2-80C331,210.3,293.3,175.1,246.9,175.1z M197.5,290.5c-0.4,0.3-0.3,1.1,0.2,1.7
	c0.5,0.5,1.3,0.8,1.7,0.3c0.4-0.3,0.3-1.1-0.2-1.7C198.7,290.3,198,290.1,197.5,290.5z M193.9,287.8c-0.2,0.4,0.1,1,0.8,1.3
	c0.5,0.3,1.2,0.2,1.4-0.2c0.2-0.4-0.1-1-0.8-1.3C194.7,287.4,194.2,287.5,193.9,287.8z M204.8,299.7c-0.5,0.4-0.3,1.4,0.4,2.1
	c0.8,0.8,1.7,0.9,2.2,0.3c0.4-0.4,0.2-1.4-0.4-2.1C206.2,299.3,205.2,299.2,204.8,299.7z M200.9,294.8c-0.5,0.3-0.5,1.2,0,2
	c0.5,0.8,1.4,1.1,1.9,0.8c0.5-0.4,0.5-1.3,0-2.1C202.3,294.7,201.5,294.4,200.9,294.8L200.9,294.8z"/>
</svg>
