<?xml version="1.0" encoding="utf-8"?>
<!-- Generator: Adobe Illustrator 22.1.0, SVG Export Plug-In . SVG Version: 6.00 Build 0)  -->
<svg version="1.1" id="Layer_1" xmlns="http://www.w3.org/2000/svg" xmlns:xlink="http://www.w3.org/1999/xlink" x="0px" y="0px"
	 viewBox="0 0 559.3 486.5" style="enable-background:new 0 0 559.3 486.5;" xml:space="preserve">
<style type="text/css">
	.st0{fill:#BCD1DE;}
</style>
<path class="st0" d="M283.1,173.9c1.5-2.1,4.3-11.1,5-13.7c1.5-5.5,1.6-11.8,5.8-15.4s13.8-11.6,5.3-11.5c-15,0-31.1,4-37.4,4.1
	c-27.4,0.5-50.3,0-76.6,0l15.2-14.4c17.9-17,31.9-32.6,43.7-45.6c6.2-6.8,5.2-6,7.6-8.7c8.3-9.1-1.1-16.1-8.1-44.1
	c-2-8,4.3-24.6-1-24.6C240.9,0,16,230.6,11.4,234.6c-13.5,11.5-14.1,14.6-6.5,21.7c27.4,25.6,88.7,89.8,123.5,129.5
	c31.3,35.7,105.7,95.4,111.4,100.4c0.1,0.1,0.3,0.2,0.5,0.3c2,0.6,0.6-9.9-3.2-18.6c-1.4-3.3-3.2-7.5-2.1-13.9
	c1-6-0.4-13.7-1.7-21.3c-2.4-14.3-3.6-17.8-32.2-45.7c-5.3-5.1-10.3-10.2-15.2-15.3c3.9,0.4,12.2,3.6,13.9-0.8
	c2.6-6.6,1.3-22.1,3.2-29.1c4.4-15.9,5.3-32.4,7.3-48.8c3.8-31,7.3-57.5,12.6-88.3c1.8-10.3,1.4-21.1,6.4-21.1
	c8-0.1,20.8-1.8,27-1.6C280.1,183.1,278.1,180.7,283.1,173.9z M164.2,255.4c-1.5,15.9-5,32.8-8.6,48.3c-2.4,10.5-5.2,20.7-4,31
	c-14-15.2-28.4-30.4-45.1-45.9C94.7,278,84,259.7,76.4,252.9c-4.1-3.7,25.2-34.4,62.1-70.5c11.1,0,22.2,0.6,33.2,1.9
	C178.4,185.4,166.8,229,164.2,255.4z M555.3,241.4c-1.8-2.8-20.5-28.3-23.5-30.7c-4.3-3.5-8.2-7.6-11.5-12.1
	c-5.1-6.9-13-13.8-19.5-19.5c7.5-16.1,10.8-34.6,8.9-49.8c-0.4-2.9-1.1-5.7-2.1-8.4c4.8-9.4,6-21.2,0-28.6
	c-4.9-6-10.1-12.3-17.9-14.3s-19.5,2.1-19.5,2.1c-2.2,0.9-4.2,2.3-5.8,4C452,79.6,439.1,78,428.9,80c-6.1,1.2-11.9,3.1-17.5,5.7
	c-16.1-13.3-31-27.9-44.7-43.6c-8.2-9-40.9-37.7-40.9-32.1c0.1,9.4,1.7,14,3.4,24.1c2.1,12.2-1.3,19.3-1.7,26.3s0,13.7,0.3,14.7
	c2.2,5.8,12.6,9.9,17.1,14.3c10.3,10.1,20.5,20.2,30.7,30.4c-6.7,13.5-8.4,29.1-2.5,44.8c5.1,13.3,14.9,26.1,27.3,35.9
	c-1.6,6.3-3.1,12.4-3.9,17.1c-3,19.6-1.1,18.4-13.5,18.4c-10.7,0-47,4.7-47.8,0.7c-1.2-6.3,3.5-27.3,4-31.4
	c2.4-18.2,11.7-38.8,14.3-56.9c0.6-3.5,0.8-7,0.6-10.5c-0.1-0.8-0.1-3-0.5-3.6c-1-1.4-9.6-1.3-16.8,3.4c-4.3,2.9-24.6,7-27,10.3
	c-8.8,12-9.1,19.3-12.2,34.3c-3.6,17.5-8.9,34.5-11.2,52.3c-2.7,19.9-3,39.8-6.7,59.5c-3.9,20.5-4.6,28.9-8.7,49.4
	c-1,4.9-1.9,9.9-2.7,14.9c-0.5,2.8-7.3,17.6-0.1,18.9c14.1,2.5,22.2-4.8,30-4c12.8,1.3,19.3-20.9,19.8-25.4
	c2.5-22.7,7.6-37.8,11.3-60.5c1.3-8.3,16.9-6.2,22.9-6.2c6.3,0,29.2-2,32.5,0.8c6.1,5.1,5-0.5,2.5,16c-1.5,9.6-3,21.1-3.7,30.8
	c-0.4,4.6-0.7,9.2-1.1,13.8c-0.2,2.5,0.3,16-0.4,23.9l-0.7,0.6c-15.1,14.6-20.2,20.6-35.3,35.2c-2.8,2.7-5.3,17.8-3.9,21.7
	c2.1,5.8-1.4,27.5-2.3,32.6c-0.7,4-3.6,10.4-4.7,14.3s-2,8.3-0.8,12.6c0.3,1.2,0.1,1.6,2,0.8c8.6-3.5,133.1-130.8,202.6-202.6
	c10-10.3,11-15.6,19.1-27.5C561.1,249.7,558.3,246.1,555.3,241.4L555.3,241.4z M405,174.9c-7.1-7.9-11.5-18-10.1-28.9
	c0.3-1.9,0.7-3.8,1.3-5.6c3.4,3.4,6.8,6.9,10.2,10.4C405.3,159.3,405.7,165.8,405,174.9z M482.8,89.3c1-0.7,2.2-1.3,3.3-1.7
	c1.4-0.4,9.9-0.7,12.9,7.6c1.5,4.3,0.3,10.5-3.3,13.7c-0.5,0.4-1,0.8-1.6,1.1C483.3,116.4,469.4,97.3,482.8,89.3L482.8,89.3z
	 M441.4,108c4.3,0.4,8.6,1.6,12.5,3.4c0.3,4.1,1.7,8,4.1,11.4c4.1,6.4,12.1,11.3,20.5,13c2,4.7,2.8,9.8,2.1,14.9
	c-0.3,2.4-0.8,4.8-1.4,7.1c-3.1-3.5-6.1-7.2-9-11.2c-12.7-17.3-23.3-29-33.4-38.7C438.3,107.9,439.8,107.9,441.4,108z M502.1,256.3
	c-15.5,16.5-31.1,33-48.3,47.7c-6,5.1-12.1,10-18.3,14.9c1.6-33.6,7.6-67.5,12.6-100.7c4.2-0.1,8.4-0.6,12.5-1.6
	c2.4-0.6,4.8-1.5,7.2-2.5c11.5,12.1,22.9,24.2,34.2,36.4c1.6,1,2.1,3.1,1.1,4.7C502.9,255.7,502.5,256,502.1,256.3z"/>
</svg>
