<?xml version="1.0" encoding="UTF-8" standalone="no"?>
<!-- Generator: Adobe Illustrator 22.1.0, SVG Export Plug-In . SVG Version: 6.00 Build 0)  -->

<svg
   xmlns:dc="http://purl.org/dc/elements/1.1/"
   xmlns:cc="http://creativecommons.org/ns#"
   xmlns:rdf="http://www.w3.org/1999/02/22-rdf-syntax-ns#"
   xmlns:svg="http://www.w3.org/2000/svg"
   xmlns="http://www.w3.org/2000/svg"
   xmlns:sodipodi="http://sodipodi.sourceforge.net/DTD/sodipodi-0.dtd"
   xmlns:inkscape="http://www.inkscape.org/namespaces/inkscape"
   version="1.1"
   id="Layer_1"
   x="0px"
   y="0px"
   viewBox="0 0 560.00001 560"
   xml:space="preserve"
   inkscape:version="0.91 r13725"
   sodipodi:docname="logo-black.svg"
   width="560"
   height="560"><metadata
     id="metadata3421"><rdf:RDF><cc:Work
         rdf:about=""><dc:format>image/svg+xml</dc:format><dc:type
           rdf:resource="http://purl.org/dc/dcmitype/StillImage" /><dc:title></dc:title></cc:Work></rdf:RDF></metadata><defs
     id="defs3419" /><sodipodi:namedview
     pagecolor="#ffffff"
     bordercolor="#666666"
     borderopacity="1"
     objecttolerance="10"
     gridtolerance="10"
     guidetolerance="10"
     inkscape:pageopacity="0"
     inkscape:pageshadow="2"
     inkscape:window-width="1920"
     inkscape:window-height="1027"
     id="namedview3417"
     showgrid="false"
     inkscape:zoom="1.7327852"
     inkscape:cx="191.63697"
     inkscape:cy="164.7108"
     inkscape:window-x="0"
     inkscape:window-y="0"
     inkscape:window-maximized="1"
     inkscape:current-layer="Layer_1"
     fit-margin-top="0"
     fit-margin-left="0"
     fit-margin-right="0"
     fit-margin-bottom="0" /><style
     type="text/css"
     id="style3413">
	.st0{fill:#00F9C7;}
</style><g
     id="g4258"
     transform="translate(0.32603333,1.3896447e-6)"><path
       style="fill:#000000;fill-opacity:0;stroke:#000000;stroke-opacity:1"
       inkscape:connector-curvature="0"
       id="path3415"
       d="m 283.09558,210.63898 c 1.5,-2.1 4.3,-11.1 5,-13.7 1.5,-5.5 1.6,-11.8 5.8,-15.4 4.2,-3.6 13.8,-11.6 5.3,-11.5 -15,0 -31.1,4 -37.4,4.1 -27.4,0.5 -50.3,0 -76.6,0 l 15.2,-14.4 c 17.9,-17 31.9,-32.6 43.7,-45.6 6.2,-6.8 5.2,-6 7.6,-8.7 8.3,-9.099998 -1.1,-16.099998 -8.1,-44.099995 -2,-8 4.3,-24.6 -1,-24.6 -1.7,0 -226.6,230.599995 -231.2,234.599995 -13.4999998,11.5 -14.0999998,14.6 -6.4999998,21.7 27.3999998,25.6 88.6999998,89.8 123.4999998,129.5 31.3,35.7 105.7,95.4 111.4,100.4 0.1,0.1 0.3,0.2 0.5,0.3 2,0.6 0.6,-9.9 -3.2,-18.6 -1.4,-3.3 -3.2,-7.5 -2.1,-13.9 1,-6 -0.4,-13.7 -1.7,-21.3 -2.4,-14.3 -3.6,-17.8 -32.2,-45.7 -5.3,-5.1 -10.3,-10.2 -15.2,-15.3 3.9,0.4 12.2,3.6 13.9,-0.8 2.6,-6.6 1.3,-22.1 3.2,-29.1 4.4,-15.9 5.3,-32.4 7.3,-48.8 3.8,-31 7.3,-57.5 12.6,-88.3 1.8,-10.3 1.4,-21.1 6.4,-21.1 8,-0.1 20.8,-1.8 27,-1.6 23.8,1.1 21.8,-1.3 26.8,-8.1 z m -118.9,81.5 c -1.5,15.9 -5,32.8 -8.6,48.3 -2.4,10.5 -5.2,20.7 -4,31 -14,-15.2 -28.4,-30.4 -45.1,-45.9 -11.8,-10.8 -22.5,-29.1 -30.1,-35.9 -4.1,-3.7 25.2,-34.4 62.1,-70.5 11.1,0 22.2,0.6 33.2,1.9 6.7,1.1 -4.9,44.7 -7.5,71.1 z m 391.1,-14 c -1.8,-2.8 -20.5,-28.3 -23.5,-30.7 -4.3,-3.5 -8.2,-7.6 -11.5,-12.1 -5.1,-6.9 -13,-13.8 -19.5,-19.5 7.5,-16.1 10.8,-34.6 8.9,-49.8 -0.4,-2.9 -1.1,-5.7 -2.1,-8.4 4.8,-9.4 6,-21.2 0,-28.6 -4.9,-6 -10.1,-12.3 -17.9,-14.3 -7.8,-2 -19.5,2.1 -19.5,2.1 -2.2,0.9 -4.2,2.3 -5.8,4 -12.4,-4.5 -25.3,-6.1 -35.5,-4.1 -6.1,1.2 -11.9,3.1 -17.5,5.7 -16.1,-13.3 -31,-27.899998 -44.7,-43.599998 -8.2,-9 -40.9,-37.699997 -40.9,-32.099997 0.1,9.4 1.7,14 3.4,24.099997 2.1,12.2 -1.3,19.3 -1.7,26.3 -0.4,6.999998 0,13.699998 0.3,14.699998 2.2,5.8 12.6,9.9 17.1,14.3 10.3,10.1 20.5,20.2 30.7,30.4 -6.7,13.5 -8.4,29.1 -2.5,44.8 5.1,13.3 14.9,26.1 27.3,35.9 -1.6,6.3 -3.1,12.4 -3.9,17.1 -3,19.6 -1.1,18.4 -13.5,18.4 -10.7,0 -47,4.7 -47.8,0.7 -1.2,-6.3 3.5,-27.3 4,-31.4 2.4,-18.2 11.7,-38.8 14.3,-56.9 0.6,-3.5 0.8,-7 0.6,-10.5 -0.1,-0.8 -0.1,-3 -0.5,-3.6 -1,-1.4 -9.6,-1.3 -16.8,3.4 -4.3,2.9 -24.6,7 -27,10.3 -8.8,12 -9.1,19.3 -12.2,34.3 -3.6,17.5 -8.9,34.5 -11.2,52.3 -2.7,19.9 -3,39.8 -6.7,59.5 -3.9,20.5 -4.6,28.9 -8.7,49.4 -1,4.9 -1.9,9.9 -2.7,14.9 -0.5,2.8 -7.3,17.6 -0.1,18.9 14.1,2.5 22.2,-4.8 30,-4 12.8,1.3 19.3,-20.9 19.8,-25.4 2.5,-22.7 7.6,-37.8 11.3,-60.5 1.3,-8.3 16.9,-6.2 22.9,-6.2 6.3,0 29.2,-2 32.5,0.8 6.1,5.1 5,-0.5 2.5,16 -1.5,9.6 -3,21.1 -3.7,30.8 -0.4,4.6 -0.7,9.2 -1.1,13.8 -0.2,2.5 0.3,16 -0.4,23.9 l -0.7,0.6 c -15.1,14.6 -20.2,20.6 -35.3,35.2 -2.8,2.7 -5.3,17.8 -3.9,21.7 2.1,5.8 -1.4,27.5 -2.3,32.6 -0.7,4 -3.6,10.4 -4.7,14.3 -1.1,3.9 -2,8.3 -0.8,12.6 0.3,1.2 0.1,1.6 2,0.8 8.6,-3.5 133.1,-130.8 202.6,-202.6 10,-10.3 11,-15.6 19.1,-27.5 3.1,-4.5 0.3,-8.1 -2.7,-12.8 l 0,0 z m -150.3,-66.5 c -7.1,-7.9 -11.5,-18 -10.1,-28.9 0.3,-1.9 0.7,-3.8 1.3,-5.6 3.4,3.4 6.8,6.9 10.2,10.4 -1.1,8.5 -0.7,15 -1.4,24.1 z m 77.8,-85.6 c 1,-0.7 2.2,-1.3 3.3,-1.7 1.4,-0.4 9.9,-0.7 12.9,7.6 1.5,4.3 0.3,10.5 -3.3,13.7 -0.5,0.4 -1,0.8 -1.6,1.1 -10.8,6.4 -24.7,-12.7 -11.3,-20.7 l 0,0 z m -41.4,18.7 c 4.3,0.4 8.6,1.6 12.5,3.4 0.3,4.1 1.7,8 4.1,11.4 4.1,6.4 12.1,11.3 20.5,13 2,4.7 2.8,9.8 2.1,14.9 -0.3,2.4 -0.8,4.8 -1.4,7.1 -3.1,-3.5 -6.1,-7.2 -9,-11.2 -12.7,-17.3 -23.3,-29 -33.4,-38.7 1.5,0 3,0 4.6,0.1 z m 60.7,148.3 c -15.5,16.5 -31.1,33 -48.3,47.7 -6,5.1 -12.1,10 -18.3,14.9 1.6,-33.6 7.6,-67.5 12.6,-100.7 4.2,-0.1 8.4,-0.6 12.5,-1.6 2.4,-0.6 4.8,-1.5 7.2,-2.5 11.5,12.1 22.9,24.2 34.2,36.4 1.6,1 2.1,3.1 1.1,4.7 -0.2,0.5 -0.6,0.8 -1,1.1 z"
       class="st0" /><g
       transform="translate(0.26000322,-36.627407)"
       id="g4246"><path
         style="fill:#000000;stroke:#000000;stroke-opacity:1"
         d="M 225.80162,547.81775 C 194.0248,521.23461 175.54331,505.10584 157.12606,487.88472 143.17504,474.83976 135.80818,467.24505 120.75519,450.38897 89.922497,415.86305 36.552641,359.78326 13.284369,337.46117 7.3848952,331.80159 2.0828889,326.39194 1.5021323,325.43971 0.26189917,323.4062 0.16871105,320.8129 1.2647548,318.83382 1.6948317,318.05725 13.327719,306.11116 27.115616,292.28696 c 13.787897,-13.8242 51.134996,-51.7539 82.993554,-84.28823 75.57024,-77.1732 130.92194,-133.236627 132.24345,-133.943876 0.85469,-0.457414 1.18395,-0.283619 1.72899,0.912597 0.52724,1.157164 0.45153,3.421865 -0.34907,10.442683 -0.56228,4.930789 -0.8486,9.924025 -0.63628,11.096081 0.77338,4.269135 3.89558,14.213965 7.60233,24.214965 3.99804,10.78688 4.71466,14.9404 3.11172,18.03554 -2.65949,5.1352 -36.68556,41.50113 -55.73316,59.56573 l -12.94112,12.27325 10.81055,0.3576 c 16.66609,0.55128 56.04435,0.50537 65.05848,-0.0759 4.44372,-0.28652 11.45555,-1.04807 15.58185,-1.69234 9.56669,-1.49369 21.75095,-2.53501 23.96694,-2.04829 2.94885,0.64768 2.2115,2.33345 -3.39855,7.76997 -2.81205,2.72507 -5.55393,5.80769 -6.09307,6.85027 -0.53913,1.04258 -1.49926,4.28159 -2.13361,7.19779 -3.3197,15.26114 -8.23319,24.25874 -14.04683,25.72263 -1.4277,0.3595 -7.35113,0.64559 -13.4109,0.64772 -9.96896,0.003 -31.38212,1.29645 -33.71059,2.03548 -1.48278,0.47061 -2.79291,4.37951 -3.74862,11.18431 -0.47192,3.36019 -1.87751,12.47202 -3.12354,20.24852 -4.53355,28.29407 -8.52743,57.5708 -11.80915,86.56584 -2.3679,20.92104 -3.25111,26.87113 -5.1921,34.97844 -1.67232,6.98512 -1.89655,8.76064 -2.61574,20.71224 -0.86087,14.30575 -1.49717,15.64411 -7.17736,15.09639 -1.92258,-0.18539 -4.66425,-0.50938 -6.09258,-0.71998 l -2.59698,-0.3829 18.21846,18.39589 c 26.05906,26.31287 26.73953,27.3297 29.66541,44.32945 1.46391,8.50546 1.79234,13.45505 1.49589,22.54331 -0.15911,4.87803 -0.0279,5.56385 2.15644,11.27533 3.35893,8.78251 5.11375,17.90275 3.43311,17.84275 -0.39676,-0.0141 -6.95412,-5.2398 -14.57192,-11.61252 z m -73.08843,-156.588 c 0.32386,-1.58704 2.02686,-9.29839 3.78444,-17.13635 3.85701,-17.2003 6.26246,-30.80785 7.83555,-44.32539 0.64642,-5.55465 2.49308,-17.76043 4.10372,-27.12397 4.48695,-26.08536 5.18206,-30.97555 5.30836,-37.34561 0.091,-4.58911 -0.0747,-6.08297 -0.7488,-6.75012 -1.26202,-1.24906 -8.96289,-2.08167 -22.79567,-2.46467 l -12.11921,-0.33556 -19.91015,20.13419 c -30.626868,30.97151 -42.149577,44.45494 -42.104303,49.26889 0.0085,0.90447 0.87832,2.30404 2.331322,3.75119 1.274768,1.26963 5.790037,6.85313 10.033932,12.40777 10.273224,13.44614 11.303231,14.57834 30.089379,33.07484 8.92139,8.78384 19.95854,20.01343 24.52699,24.95464 l 8.30625,8.98402 0.38469,-7.10417 c 0.21157,-3.9073 0.64965,-8.40266 0.9735,-9.9897 z"
         id="path3423"
         inkscape:connector-curvature="0" /><path
         style="fill:#000000;stroke:#000000;stroke-opacity:1"
         d="m 334.24785,555.64327 c -0.67493,-3.59767 0.2503,-8.80719 2.95196,-16.62093 3.77971,-10.93172 6.68208,-31.89326 5.44107,-39.29674 -1.11466,-6.64983 -0.12335,-16.02143 2.24309,-21.20544 0.7884,-1.72712 6.53385,-7.84938 19.36145,-20.63128 l 18.24037,-18.17539 0.006,-11.54555 c 0.009,-16.5399 2.16354,-39.91456 5.52881,-59.96967 0.79405,-4.73211 1.31948,-8.92762 1.16762,-9.32336 -0.15185,-0.39574 -1.52725,-1.58812 -3.05642,-2.64972 l -2.78029,-1.9302 -19.91015,-0.0735 c -26.31062,-0.0971 -30.84965,0.44812 -33.14168,3.98096 -0.45905,0.70756 -2.15909,7.77891 -3.77787,15.71411 -1.61878,7.9352 -3.82384,18.71265 -4.90014,23.94988 -1.0763,5.23724 -2.47996,13.29747 -3.11926,17.91162 -1.33222,9.61534 -3.54838,16.4975 -7.06402,21.93688 -4.25324,6.58059 -6.55821,8.10386 -13.10401,8.66003 -2.93938,0.24974 -7.51672,1.20771 -11.07095,2.31698 -5.32184,1.66094 -6.87773,1.89659 -12.77914,1.93542 -5.83586,0.0384 -6.8794,-0.10034 -7.9352,-1.05515 -1.74717,-1.58003 -1.59261,-5.67159 0.49259,-13.0397 1.82246,-6.43974 4.85458,-22.06023 8.68178,-44.72568 1.28631,-7.6178 3.09986,-18.2654 4.03012,-23.66133 2.20538,-12.7923 2.59511,-15.95963 4.33173,-35.20344 2.48955,-27.58732 3.26781,-32.40027 9.51854,-58.86477 2.17411,-9.20484 4.64226,-20.24198 5.48478,-24.52699 2.57083,-13.07514 4.14312,-17.50472 8.86429,-24.97328 2.57047,-4.06631 4.10015,-4.86298 17.39948,-9.06184 5.23723,-1.65349 10.82072,-3.73717 12.40777,-4.63038 1.58704,-0.89321 4.29607,-2.03784 6.02007,-2.54361 3.49155,-1.02433 9.01483,-1.22747 9.55623,-0.35146 0.19312,0.31247 0.34806,3.15323 0.34431,6.31279 -0.009,7.42607 -1.84658,16.5194 -6.43253,31.82843 -1.94205,6.48306 -4.28955,14.64405 -5.21668,18.13554 -1.8332,6.90376 -6.53496,33.7126 -7.13553,40.68595 -0.55257,6.41607 -0.34426,6.59044 8.15466,6.8259 3.75577,0.10405 14.14279,-0.35042 23.08224,-1.00994 8.93946,-0.65951 18.20916,-1.19912 20.59934,-1.19912 7.09014,0 7.20293,-0.19442 9.87647,-17.02461 0.50421,-3.17408 1.59816,-8.66546 2.43098,-12.20306 l 1.51422,-6.432 -2.25306,-1.90209 c -1.23919,-1.04616 -3.94968,-3.60541 -6.02332,-5.68722 -13.73002,-13.78416 -21.45555,-29.29736 -22.32037,-44.8203 -0.49817,-8.94171 0.91425,-16.32601 5.10658,-26.69781 l 0.78535,-1.94296 -15.8704,-15.53511 c -11.13942,-10.904 -17.41881,-16.5913 -21.06441,-19.07815 -7.43405,-5.07114 -9.34072,-6.69821 -10.3557,-8.83711 -1.32304,-2.78811 -1.19243,-14.39595 0.25635,-22.78203 1.5698,-9.08659 1.46084,-14.37759 -0.51882,-25.19548 -1.98348,-10.838679 -2.71945,-17.801306 -1.93304,-18.287338 2.19338,-1.355583 23.86484,16.19804 37.94385,30.734058 17.46671,18.03369 34.91856,35.27016 40.81095,40.30728 l 6.18462,5.28693 4.20328,-1.74225 c 2.31181,-0.95825 6.80026,-2.38451 9.97434,-3.16949 9.989,-2.47034 22.90666,-1.78934 34.29402,1.80793 l 4.66434,1.47346 2.2333,-1.79473 c 3.29917,-2.65129 8.49479,-4.08877 16.09957,-4.4543 l 6.50594,-0.31271 4.26888,2.10979 c 3.43318,1.69678 5.25009,3.15213 9.28105,7.4342 2.75669,2.92842 5.69895,6.62514 6.53835,8.21492 1.41164,2.67359 1.5239,3.41026 1.4959,9.81579 -0.0269,6.16918 -0.20482,7.36632 -1.62907,10.965 -1.91984,4.85094 -1.88475,4.31515 -0.58579,8.94514 1.45951,5.20223 1.45207,19.90019 -0.0141,27.98962 -1.24329,6.85943 -3.79694,15.69585 -6.22165,21.52874 l -1.75238,4.21557 7.81292,7.47849 c 4.2971,4.11317 9.62921,9.74739 11.84913,12.52049 2.21991,2.7731 6.34716,7.26352 9.17165,9.97871 5.1322,4.93359 19.45573,23.29831 26.01952,33.36058 4.23798,6.49681 4.4454,8.39983 1.42402,13.06511 -1.23337,1.90445 -4.00718,6.39807 -6.16402,9.98583 -2.15683,3.58775 -5.2106,8.13246 -6.78615,10.09935 -6.79688,8.48506 -134.3918,138.60128 -171.31055,174.69564 -27.47088,26.85747 -35.33184,34.04154 -37.24898,34.04154 -0.44773,0 -0.95621,-0.89831 -1.17816,-2.08144 z M 445.82973,384.36153 c 16.3736,-13.46418 31.82671,-28.2014 51.13141,-48.76269 5.05215,-5.381 6.71682,-7.52989 6.71682,-8.6706 0,-1.18787 -3.2209,-4.95089 -14.86047,-17.36168 -8.17326,-8.7148 -16.19404,-17.27562 -17.82397,-19.02403 l -2.9635,-3.17893 -2.80756,1.00641 c -3.88834,1.39382 -10.3785,2.70819 -13.484,2.73074 -1.42834,0.0104 -2.89375,0.20965 -3.25647,0.44285 -0.61321,0.39424 -4.57626,24.76344 -7.95429,48.91167 -2.43605,17.41439 -4.10597,33.52446 -5.12852,49.47599 -0.0763,1.19028 0.12783,2.16036 0.45362,2.15572 0.3258,-0.005 4.81542,-3.48109 9.97693,-7.72545 z M 405.59361,241.75941 c 0.0227,-2.85668 0.24501,-7.9204 0.49402,-11.25271 l 0.45277,-6.05876 -4.92898,-5.33908 c -2.71094,-2.93649 -5.11518,-5.33907 -5.34277,-5.33907 -0.74338,0 -1.66365,5.72827 -1.66365,10.35551 0,7.13369 2.28313,13.56554 7.35672,20.72478 3.16245,4.46248 3.57466,4.11171 3.63189,-3.09067 z m 74.49119,-13.12916 c 1.06779,-3.79691 0.95846,-12.30387 -0.20659,-16.07504 l -0.99925,-3.23445 -3.90373,-1.28005 c -10.5915,-3.47301 -18.67943,-11.50898 -20.40354,-20.27246 l -0.65119,-3.30995 -3.82454,-1.25551 c -3.65317,-1.19924 -12.71349,-2.59204 -13.26619,-2.03934 -0.14466,0.14465 2.95585,3.58644 6.89001,7.64841 8.34861,8.61985 14.41549,15.77132 22.88632,26.97779 7.23399,9.5702 11.81082,15.21223 12.37835,15.25927 0.22582,0.0187 0.72098,-1.06968 1.10035,-2.41867 z m 13.75675,-44.85689 c 6.91533,-3.52794 7.9182,-15.70464 1.67547,-20.34333 -3.75201,-2.78795 -7.84062,-3.45606 -11.05648,-1.8067 -6.58752,3.37862 -8.94699,9.01072 -6.25179,14.92315 3.19143,7.00097 9.95066,10.12569 15.6328,7.22688 z"
         id="path3425"
         inkscape:connector-curvature="0" /></g></g></svg>